<svg width="20" height="20" viewBox="0 0 20 20" fill="none" xmlns="http://www.w3.org/2000/svg">
<path d="M4.89263 14.4246C5.6704 13.8734 6.47756 13.4496 7.31409 13.1532C8.15061 12.8566 9.04589 12.7084 9.99992 12.7084C10.9539 12.7084 11.8492 12.8566 12.6858 13.1532C13.5223 13.4496 14.3294 13.8734 15.1072 14.4246C15.6575 13.7857 16.0758 13.1028 16.362 12.3759C16.6484 11.6488 16.7916 10.8568 16.7916 10C16.7916 8.13893 16.1249 6.54171 14.7916 5.20837C13.4583 3.87504 11.861 3.20837 9.99992 3.20837C8.13881 3.20837 6.54159 3.87504 5.20825 5.20837C3.87492 6.54171 3.20825 8.13893 3.20825 10C3.20825 10.8568 3.35145 11.6488 3.63784 12.3759C3.92409 13.1028 4.34235 13.7857 4.89263 14.4246ZM10.002 10.9167C9.15978 10.9167 8.44888 10.6276 7.86929 10.0494C7.28971 9.47136 6.99992 8.76115 6.99992 7.91879C6.99992 7.07657 7.28902 6.36567 7.86721 5.78608C8.44527 5.2065 9.15547 4.91671 9.99784 4.91671C10.8401 4.91671 11.551 5.2058 12.1305 5.784C12.7101 6.36205 12.9999 7.07226 12.9999 7.91462C12.9999 8.75685 12.7108 9.46775 12.1326 10.0473C11.5546 10.6269 10.8444 10.9167 10.002 10.9167ZM9.99992 18.1667C8.8845 18.1667 7.82867 17.9528 6.83242 17.525C5.83631 17.0973 4.96964 16.5128 4.23242 15.7717C3.4952 15.0307 2.91103 14.1624 2.47992 13.1667C2.04881 12.171 1.83325 11.112 1.83325 9.98962C1.83325 8.86726 2.04881 7.81171 2.47992 6.82296C2.91103 5.83421 3.4952 4.96935 4.23242 4.22837C4.96964 3.48726 5.83631 2.90282 6.83242 2.47504C7.82867 2.04726 8.88797 1.83337 10.0103 1.83337C11.1327 1.83337 12.1883 2.04893 13.177 2.48004C14.1658 2.91115 15.029 3.49553 15.7668 4.23317C16.5044 4.97094 17.0888 5.83365 17.5199 6.82129C17.951 7.80893 18.1666 8.86851 18.1666 10C18.1666 11.1155 17.9527 12.1713 17.5249 13.1675C17.0971 14.1637 16.5127 15.0303 15.7716 15.7675C15.0306 16.5048 14.1663 17.0889 13.1787 17.52C12.191 17.9512 11.1314 18.1667 9.99992 18.1667ZM9.99992 16.7917C10.6987 16.7917 11.4129 16.6678 12.1426 16.4198C12.8722 16.1721 13.5078 15.8286 14.0495 15.3894C13.5078 14.9823 12.8882 14.6629 12.1905 14.4311C11.4929 14.1993 10.7627 14.0834 9.99992 14.0834C9.23714 14.0834 8.50422 14.1966 7.80117 14.4232C7.09825 14.6497 6.48131 14.9718 5.95034 15.3894C6.492 15.8286 7.12763 16.1721 7.85721 16.4198C8.58693 16.6678 9.30117 16.7917 9.99992 16.7917ZM9.99992 9.54171C10.4401 9.54171 10.821 9.38094 11.1426 9.05942C11.4642 8.73775 11.6249 8.35685 11.6249 7.91671C11.6249 7.47657 11.4642 7.09567 11.1426 6.774C10.821 6.45247 10.4401 6.29171 9.99992 6.29171C9.55978 6.29171 9.17888 6.45247 8.85721 6.774C8.53568 7.09567 8.37492 7.47657 8.37492 7.91671C8.37492 8.35685 8.53568 8.73775 8.85721 9.05942C9.17888 9.38094 9.55978 9.54171 9.99992 9.54171Z" fill="white"/>
</svg>
