<svg width="20" height="20" viewBox="0 0 20 20" fill="none" xmlns="http://www.w3.org/2000/svg">
<path d="M6.58325 8.80775C6.78297 8.80775 6.96061 8.73004 7.11617 8.57462C7.27158 8.41907 7.34929 8.24143 7.34929 8.04171C7.34929 7.84199 7.27158 7.66435 7.11617 7.50879C6.96061 7.35337 6.78297 7.27567 6.58325 7.27567C6.38353 7.27567 6.20589 7.35337 6.05034 7.50879C5.89492 7.66435 5.81721 7.84199 5.81721 8.04171C5.81721 8.24143 5.89492 8.41907 6.05034 8.57462C6.20589 8.73004 6.38353 8.80775 6.58325 8.80775ZM9.99992 8.80775C10.1996 8.80775 10.3773 8.73004 10.5328 8.57462C10.6883 8.41907 10.766 8.24143 10.766 8.04171C10.766 7.84199 10.6883 7.66435 10.5328 7.50879C10.3773 7.35337 10.1996 7.27567 9.99992 7.27567C9.8002 7.27567 9.62256 7.35337 9.467 7.50879C9.31159 7.66435 9.23388 7.84199 9.23388 8.04171C9.23388 8.24143 9.31159 8.41907 9.467 8.57462C9.62256 8.73004 9.8002 8.80775 9.99992 8.80775ZM13.4166 8.80775C13.6163 8.80775 13.7939 8.73004 13.9495 8.57462C14.1049 8.41907 14.1826 8.24143 14.1826 8.04171C14.1826 7.84199 14.1049 7.66435 13.9495 7.50879C13.7939 7.35337 13.6163 7.27567 13.4166 7.27567C13.2169 7.27567 13.0392 7.35337 12.8837 7.50879C12.7283 7.66435 12.6505 7.84199 12.6505 8.04171C12.6505 8.24143 12.7283 8.41907 12.8837 8.57462C13.0392 8.73004 13.2169 8.80775 13.4166 8.80775ZM1.83325 17.6059V3.47129C1.83325 2.93865 2.01478 2.49087 2.37784 2.12796C2.74075 1.7649 3.18853 1.58337 3.72117 1.58337H16.2787C16.8113 1.58337 17.2591 1.7649 17.622 2.12796C17.9851 2.49087 18.1666 2.93865 18.1666 3.47129V12.6121C18.1666 13.1448 17.9851 13.5925 17.622 13.9555C17.2591 14.3185 16.8113 14.5 16.2787 14.5H4.93909L1.83325 17.6059ZM4.37492 13.125H16.2787C16.407 13.125 16.5246 13.0716 16.6314 12.9648C16.7382 12.858 16.7916 12.7405 16.7916 12.6121V3.47129C16.7916 3.34296 16.7382 3.22539 16.6314 3.11858C16.5246 3.01178 16.407 2.95837 16.2787 2.95837H3.72117C3.59284 2.95837 3.47527 3.01178 3.36846 3.11858C3.26165 3.22539 3.20825 3.34296 3.20825 3.47129V14.3077L4.37492 13.125Z" fill="white"/>
</svg>
