<svg width="20" height="20" viewBox="0 0 20 20" fill="none" xmlns="http://www.w3.org/2000/svg">
<path d="M7.95842 11.2725L8.71154 8.6635L6.62821 7.32684H9.22133L10.0001 4.52871L10.7788 7.32684H13.372L11.3047 8.6635L12.0578 11.2725L10.0001 9.66663L7.95842 11.2725ZM5.20841 18.6345V12.4456C4.66675 11.8632 4.25355 11.1995 3.96883 10.4543C3.68411 9.70906 3.54175 8.9326 3.54175 8.12496C3.54175 6.33218 4.16994 4.8076 5.42633 3.55121C6.68272 2.29482 8.2073 1.66663 10.0001 1.66663C11.7929 1.66663 13.3174 2.29482 14.5738 3.55121C15.8302 4.8076 16.4584 6.33218 16.4584 8.12496C16.4584 8.9326 16.323 9.70906 16.0522 10.4543C15.7813 11.1995 15.3612 11.8632 14.7917 12.4456V18.6345L10.0001 17.0929L5.20841 18.6345ZM10.0051 13.2083C11.4184 13.2083 12.6181 12.7136 13.6042 11.7241C14.5904 10.7348 15.0834 9.53343 15.0834 8.11996C15.0834 6.70663 14.5887 5.5069 13.5992 4.52079C12.6099 3.53468 11.4086 3.04163 9.99508 3.04163C8.58175 3.04163 7.38203 3.53635 6.39592 4.52579C5.4098 5.5151 4.91675 6.71649 4.91675 8.12996C4.91675 9.54329 5.41147 10.743 6.40091 11.7291C7.39022 12.7152 8.59161 13.2083 10.0051 13.2083ZM6.58342 16.5993L10.0001 15.7275L13.4167 16.5993V13.5737C12.9104 13.9155 12.371 14.1693 11.7986 14.335C11.2263 14.5005 10.6267 14.5833 10.0001 14.5833C9.37342 14.5833 8.7739 14.5005 8.20154 14.335C7.62918 14.1693 7.0898 13.9155 6.58342 13.5737V16.5993Z" fill="white"/>
</svg>
