<svg width="3" height="3" viewBox="0 0 3 3" fill="none" xmlns="http://www.w3.org/2000/svg">
<path d="M1.74628 0.412273C1.69814 0.136205 1.30186 0.136205 1.25372 0.412274L1.15896 0.955628C1.14085 1.0595 1.0595 1.14085 0.955628 1.15896L0.412273 1.25372C0.136205 1.30186 0.136205 1.69814 0.412274 1.74628L0.955628 1.84104C1.0595 1.85915 1.14085 1.9405 1.15896 2.04437L1.25372 2.58773C1.30186 2.86379 1.69814 2.86379 1.74628 2.58773L1.84104 2.04437C1.85915 1.9405 1.9405 1.85915 2.04437 1.84104L2.58773 1.74628C2.86379 1.69814 2.86379 1.30186 2.58773 1.25372L2.04437 1.15896C1.9405 1.14085 1.85915 1.0595 1.84104 0.955628L1.74628 0.412273Z" fill="url(#paint0_linear_350_1295)"/>
<defs>
<linearGradient id="paint0_linear_350_1295" x1="1.5" y1="3.5" x2="1.5" y2="-0.166667" gradientUnits="userSpaceOnUse">
<stop stop-color="#592582"/>
<stop offset="1" stop-color="#6965ED"/>
</linearGradient>
</defs>
</svg>
