<svg width="145" height="14" viewBox="0 0 145 14" fill="none" xmlns="http://www.w3.org/2000/svg">
<path d="M1.97869 11H0.348011L4.01207 0.818182H5.78693L9.45099 11H7.82031L4.94176 2.66761H4.86222L1.97869 11ZM2.25213 7.01278H7.5419V8.3054H2.25213V7.01278ZM16.4696 5.22798L15.1223 5.46662C15.066 5.29427 14.9765 5.13021 14.8539 4.97443C14.7346 4.81865 14.5721 4.69105 14.3667 4.59162C14.1612 4.49219 13.9043 4.44247 13.5961 4.44247C13.1751 4.44247 12.8238 4.53693 12.5421 4.72585C12.2604 4.91146 12.1195 5.15175 12.1195 5.44673C12.1195 5.70194 12.214 5.90743 12.4029 6.06321C12.5918 6.21899 12.8967 6.34659 13.3176 6.44602L14.5307 6.72443C15.2334 6.88684 15.757 7.13707 16.1017 7.47514C16.4464 7.81321 16.6188 8.25237 16.6188 8.79261C16.6188 9.25 16.4862 9.65767 16.2211 10.0156C15.9592 10.3703 15.593 10.6487 15.1223 10.8509C14.655 11.053 14.1131 11.1541 13.4966 11.1541C12.6415 11.1541 11.9438 10.9718 11.4036 10.6072C10.8633 10.2393 10.5319 9.71733 10.4093 9.04119L11.8461 8.82244C11.9355 9.19697 12.1195 9.48035 12.3979 9.67259C12.6763 9.86151 13.0392 9.95597 13.4867 9.95597C13.9739 9.95597 14.3633 9.85488 14.655 9.6527C14.9467 9.44721 15.0925 9.19697 15.0925 8.90199C15.0925 8.66335 15.003 8.46283 14.824 8.30043C14.6484 8.13802 14.3783 8.01539 14.0137 7.93253L12.7211 7.64915C12.0085 7.48674 11.4815 7.22822 11.1401 6.87358C10.802 6.51894 10.633 6.06984 10.633 5.52628C10.633 5.07552 10.7589 4.68111 11.0108 4.34304C11.2627 4.00497 11.6107 3.74148 12.0549 3.55256C12.499 3.36032 13.0078 3.2642 13.5811 3.2642C14.4064 3.2642 15.056 3.44318 15.53 3.80114C16.004 4.15578 16.3172 4.63139 16.4696 5.22798ZM19.6204 8.4098L19.6104 6.59517H19.869L22.9116 3.36364H24.6914L21.2212 7.04261H20.9876L19.6204 8.4098ZM18.2532 11V0.818182H19.7397V11H18.2532ZM23.0756 11L20.3413 7.37074L21.3654 6.33168L24.9002 11H23.0756ZM29.8706 11V0.818182H31.3571V4.60156H31.4466C31.5327 4.44247 31.657 4.25852 31.8194 4.04972C31.9818 3.84091 32.2072 3.65862 32.4956 3.50284C32.7839 3.34375 33.1651 3.2642 33.639 3.2642C34.2555 3.2642 34.8057 3.41998 35.2896 3.73153C35.7735 4.04309 36.153 4.49219 36.4281 5.07884C36.7065 5.66548 36.8457 6.37145 36.8457 7.19673C36.8457 8.02202 36.7082 8.72964 36.4331 9.3196C36.158 9.90625 35.7801 10.3587 35.2995 10.6768C34.819 10.9917 34.2704 11.1491 33.6539 11.1491C33.1899 11.1491 32.8104 11.0713 32.5154 10.9155C32.2238 10.7597 31.9951 10.5774 31.8294 10.3686C31.6636 10.1598 31.536 9.9742 31.4466 9.81179H31.3223V11H29.8706ZM31.3272 7.18182C31.3272 7.71875 31.4051 8.18939 31.5609 8.59375C31.7167 8.99811 31.9421 9.31463 32.237 9.54332C32.532 9.7687 32.8933 9.88139 33.3208 9.88139C33.765 9.88139 34.1362 9.76373 34.4345 9.52841C34.7328 9.28977 34.9582 8.96662 35.1106 8.55895C35.2664 8.15128 35.3443 7.69223 35.3443 7.18182C35.3443 6.67803 35.2681 6.22562 35.1156 5.82457C34.9664 5.42353 34.7411 5.10701 34.4395 4.875C34.1412 4.64299 33.7683 4.52699 33.3208 4.52699C32.89 4.52699 32.5254 4.63802 32.2271 4.86009C31.9321 5.08215 31.7084 5.39205 31.5559 5.78977C31.4035 6.1875 31.3272 6.65151 31.3272 7.18182ZM43.3523 7.8331V3.36364H44.8438V11H43.3821V9.67756H43.3026C43.1269 10.0852 42.8452 10.425 42.4574 10.6967C42.0729 10.9652 41.594 11.0994 41.0206 11.0994C40.5301 11.0994 40.0959 10.9917 39.718 10.7763C39.3435 10.5575 39.0485 10.2344 38.8331 9.80682C38.621 9.37926 38.5149 8.85062 38.5149 8.22088V3.36364H40.0014V8.0419C40.0014 8.56226 40.1456 8.97656 40.4339 9.2848C40.7223 9.59304 41.0968 9.74716 41.5575 9.74716C41.8359 9.74716 42.1127 9.67756 42.3878 9.53835C42.6662 9.39915 42.8965 9.18868 43.0788 8.90696C43.2644 8.62524 43.3556 8.26728 43.3523 7.8331ZM48.3276 6.46591V11H46.8411V3.36364H48.2679V4.60653H48.3624C48.5381 4.20218 48.8132 3.87737 49.1877 3.6321C49.5655 3.38684 50.0411 3.2642 50.6145 3.2642C51.1349 3.2642 51.5906 3.37358 51.9817 3.59233C52.3728 3.80777 52.6761 4.12926 52.8915 4.55682C53.1069 4.98437 53.2147 5.51302 53.2147 6.14276V11H51.7282V6.32173C51.7282 5.76823 51.584 5.3357 51.2956 5.02415C51.0073 4.70928 50.6112 4.55185 50.1074 4.55185C49.7627 4.55185 49.4561 4.62642 49.1877 4.77557C48.9225 4.92472 48.7121 5.14347 48.5563 5.43182C48.4038 5.71686 48.3276 6.06155 48.3276 6.46591ZM56.6948 6.46591V11H55.2083V3.36364H56.6351V4.60653H56.7296C56.9052 4.20218 57.1803 3.87737 57.5549 3.6321C57.9327 3.38684 58.4083 3.2642 58.9817 3.2642C59.5021 3.2642 59.9578 3.37358 60.3489 3.59233C60.74 3.80777 61.0433 4.12926 61.2587 4.55682C61.4741 4.98437 61.5819 5.51302 61.5819 6.14276V11H60.0953V6.32173C60.0953 5.76823 59.9512 5.3357 59.6628 5.02415C59.3745 4.70928 58.9784 4.55185 58.4746 4.55185C58.1299 4.55185 57.8233 4.62642 57.5549 4.77557C57.2897 4.92472 57.0792 5.14347 56.9235 5.43182C56.771 5.71686 56.6948 6.06155 56.6948 6.46591ZM64.2417 13.8636C64.0196 13.8636 63.8174 13.8454 63.6351 13.8089C63.4528 13.7758 63.3169 13.7393 63.2275 13.6996L63.5854 12.4815C63.8572 12.5545 64.0991 12.5859 64.3113 12.576C64.5234 12.5661 64.7106 12.4865 64.873 12.3374C65.0388 12.1882 65.1846 11.9446 65.3105 11.6065L65.4945 11.0994L62.7005 3.36364H64.2914L66.2253 9.28977H66.3049L68.2388 3.36364H69.8347L66.6877 12.0192C66.5418 12.4169 66.3562 12.7533 66.1309 13.0284C65.9055 13.3068 65.637 13.5156 65.3255 13.6548C65.0139 13.794 64.6526 13.8636 64.2417 13.8636ZM78.5014 3.36364V4.55682H74.3303V3.36364H78.5014ZM75.4489 1.53409H76.9354V8.75781C76.9354 9.04616 76.9785 9.26326 77.0646 9.40909C77.1508 9.55161 77.2618 9.64938 77.3977 9.70241C77.5369 9.75213 77.6877 9.77699 77.8501 9.77699C77.9695 9.77699 78.0739 9.7687 78.1634 9.75213C78.2528 9.73556 78.3224 9.7223 78.3722 9.71236L78.6406 10.9403C78.5545 10.9735 78.4318 11.0066 78.2727 11.0398C78.1136 11.0762 77.9148 11.0961 77.6761 11.0994C77.285 11.1061 76.9205 11.0365 76.5824 10.8906C76.2443 10.7448 75.9709 10.5194 75.7621 10.2145C75.5533 9.90956 75.4489 9.52675 75.4489 9.06605V1.53409ZM83.2804 11.1541C82.5645 11.1541 81.9397 10.9901 81.4061 10.6619C80.8725 10.3338 80.4582 9.87476 80.1632 9.2848C79.8682 8.69484 79.7207 8.00544 79.7207 7.21662C79.7207 6.42448 79.8682 5.73177 80.1632 5.13849C80.4582 4.54522 80.8725 4.08452 81.4061 3.75639C81.9397 3.42827 82.5645 3.2642 83.2804 3.2642C83.9963 3.2642 84.621 3.42827 85.1547 3.75639C85.6883 4.08452 86.1026 4.54522 86.3975 5.13849C86.6925 5.73177 86.84 6.42448 86.84 7.21662C86.84 8.00544 86.6925 8.69484 86.3975 9.2848C86.1026 9.87476 85.6883 10.3338 85.1547 10.6619C84.621 10.9901 83.9963 11.1541 83.2804 11.1541ZM83.2853 9.90625C83.7493 9.90625 84.1338 9.78362 84.4387 9.53835C84.7437 9.29309 84.969 8.96662 85.1149 8.55895C85.264 8.15128 85.3386 7.70218 85.3386 7.21165C85.3386 6.72443 85.264 6.27699 85.1149 5.86932C84.969 5.45833 84.7437 5.12855 84.4387 4.87997C84.1338 4.63139 83.7493 4.5071 83.2853 4.5071C82.818 4.5071 82.4302 4.63139 82.122 4.87997C81.8171 5.12855 81.59 5.45833 81.4409 5.86932C81.295 6.27699 81.2221 6.72443 81.2221 7.21165C81.2221 7.70218 81.295 8.15128 81.4409 8.55895C81.59 8.96662 81.8171 9.29309 82.122 9.53835C82.4302 9.78362 82.818 9.90625 83.2853 9.90625ZM95.421 11.1541C94.6819 11.1541 94.0455 10.9867 93.5119 10.652C92.9816 10.3139 92.5739 9.84825 92.2889 9.25497C92.0038 8.66169 91.8613 7.98224 91.8613 7.21662C91.8613 6.44105 92.0072 5.75663 92.2988 5.16335C92.5905 4.56676 93.0015 4.10109 93.5318 3.76633C94.0621 3.43158 94.6868 3.2642 95.4061 3.2642C95.9861 3.2642 96.5031 3.37192 96.9572 3.58736C97.4113 3.79948 97.7775 4.09777 98.0559 4.48224C98.3377 4.86671 98.505 5.31581 98.5581 5.82955H97.1113C97.0318 5.47159 96.8495 5.16335 96.5645 4.90483C96.2827 4.64631 95.9049 4.51705 95.4309 4.51705C95.0166 4.51705 94.6537 4.62642 94.3422 4.84517C94.0339 5.06061 93.7936 5.36884 93.6213 5.76989C93.4489 6.16761 93.3627 6.63826 93.3627 7.18182C93.3627 7.73864 93.4473 8.21922 93.6163 8.62358C93.7853 9.02794 94.024 9.34115 94.3322 9.56321C94.6438 9.78527 95.01 9.89631 95.4309 9.89631C95.7127 9.89631 95.9679 9.84493 96.1966 9.74219C96.4286 9.63613 96.6225 9.48532 96.7782 9.28977C96.9373 9.09422 97.0484 8.8589 97.1113 8.58381H98.5581C98.505 9.07765 98.3443 9.51847 98.0758 9.90625C97.8074 10.294 97.4477 10.599 96.997 10.821C96.5495 11.0431 96.0242 11.1541 95.421 11.1541ZM100.148 11V3.36364H101.585V4.5767H101.664C101.803 4.16572 102.049 3.84257 102.4 3.60724C102.754 3.36861 103.156 3.24929 103.603 3.24929C103.696 3.24929 103.805 3.2526 103.931 3.25923C104.06 3.26586 104.161 3.27415 104.234 3.28409V4.70597C104.175 4.68939 104.069 4.67116 103.916 4.65128C103.764 4.62808 103.611 4.61648 103.459 4.61648C103.107 4.61648 102.794 4.69105 102.519 4.8402C102.247 4.98603 102.032 5.18987 101.873 5.4517C101.714 5.71023 101.634 6.00521 101.634 6.33665V11H100.148ZM108.539 11.1541C107.786 11.1541 107.138 10.9934 106.595 10.6719C106.054 10.3471 105.637 9.89134 105.342 9.30469C105.05 8.71473 104.904 8.02367 104.904 7.23153C104.904 6.44934 105.05 5.75994 105.342 5.16335C105.637 4.56676 106.048 4.10109 106.575 3.76633C107.105 3.43158 107.725 3.2642 108.434 3.2642C108.865 3.2642 109.283 3.33546 109.687 3.47798C110.091 3.6205 110.454 3.84422 110.776 4.14915C111.097 4.45407 111.351 4.85014 111.536 5.33736C111.722 5.82126 111.815 6.40956 111.815 7.10227V7.62926H105.744V6.51562H110.358C110.358 6.12453 110.279 5.77817 110.119 5.47656C109.96 5.17164 109.737 4.93134 109.448 4.75568C109.163 4.58002 108.829 4.49219 108.444 4.49219C108.026 4.49219 107.662 4.59493 107.35 4.80043C107.042 5.0026 106.803 5.26776 106.634 5.59588C106.469 5.92069 106.386 6.27367 106.386 6.65483V7.52486C106.386 8.03527 106.475 8.46946 106.654 8.82741C106.837 9.18537 107.09 9.45881 107.415 9.64773C107.74 9.83333 108.119 9.92614 108.553 9.92614C108.835 9.92614 109.092 9.88636 109.324 9.80682C109.556 9.72396 109.757 9.60133 109.926 9.43892C110.095 9.27652 110.224 9.07599 110.313 8.83736L111.72 9.09091C111.608 9.50521 111.405 9.86813 111.114 10.1797C110.825 10.4879 110.463 10.7282 110.025 10.9006C109.591 11.0696 109.095 11.1541 108.539 11.1541ZM115.686 11.169C115.203 11.169 114.765 11.0795 114.374 10.9006C113.983 10.7183 113.673 10.4548 113.444 10.1101C113.219 9.76539 113.106 9.3428 113.106 8.84233C113.106 8.41146 113.189 8.05682 113.355 7.77841C113.52 7.5 113.744 7.27959 114.026 7.11719C114.308 6.95478 114.623 6.83215 114.971 6.74929C115.319 6.66643 115.673 6.60346 116.034 6.56037C116.492 6.50734 116.863 6.46425 117.148 6.43111C117.433 6.39465 117.64 6.33665 117.77 6.2571C117.899 6.17756 117.963 6.0483 117.963 5.86932V5.83452C117.963 5.40033 117.841 5.06392 117.596 4.82528C117.354 4.58665 116.992 4.46733 116.512 4.46733C116.011 4.46733 115.617 4.57836 115.328 4.80043C115.043 5.01918 114.846 5.26278 114.737 5.53125L113.34 5.21307C113.506 4.74905 113.748 4.37453 114.066 4.08949C114.387 3.80114 114.757 3.59233 115.174 3.46307C115.592 3.33049 116.031 3.2642 116.492 3.2642C116.797 3.2642 117.12 3.30066 117.461 3.37358C117.806 3.44318 118.127 3.57244 118.426 3.76136C118.727 3.95028 118.974 4.22041 119.167 4.57173C119.359 4.91974 119.455 5.37216 119.455 5.92898V11H118.003V9.95597H117.944C117.847 10.1482 117.703 10.3371 117.511 10.5227C117.319 10.7083 117.072 10.8625 116.77 10.9851C116.469 11.1077 116.107 11.169 115.686 11.169ZM116.01 9.97585C116.421 9.97585 116.772 9.89465 117.064 9.73224C117.359 9.56984 117.582 9.35772 117.735 9.09588C117.891 8.83073 117.968 8.54735 117.968 8.24574V7.26136C117.915 7.31439 117.813 7.36411 117.66 7.41051C117.511 7.4536 117.34 7.49171 117.148 7.52486C116.956 7.55469 116.769 7.58286 116.586 7.60938C116.404 7.63258 116.252 7.65246 116.129 7.66903C115.841 7.70549 115.577 7.76681 115.338 7.85298C115.103 7.93916 114.914 8.06345 114.772 8.22585C114.632 8.38494 114.563 8.59706 114.563 8.86222C114.563 9.23011 114.699 9.50852 114.971 9.69744C115.242 9.88305 115.589 9.97585 116.01 9.97585ZM124.999 3.36364V4.55682H120.828V3.36364H124.999ZM121.947 1.53409H123.433V8.75781C123.433 9.04616 123.477 9.26326 123.563 9.40909C123.649 9.55161 123.76 9.64938 123.896 9.70241C124.035 9.75213 124.186 9.77699 124.348 9.77699C124.468 9.77699 124.572 9.7687 124.661 9.75213C124.751 9.73556 124.82 9.7223 124.87 9.71236L125.139 10.9403C125.052 10.9735 124.93 11.0066 124.771 11.0398C124.612 11.0762 124.413 11.0961 124.174 11.0994C123.783 11.1061 123.419 11.0365 123.08 10.8906C122.742 10.7448 122.469 10.5194 122.26 10.2145C122.051 9.90956 121.947 9.52675 121.947 9.06605V1.53409ZM129.853 11.1541C129.101 11.1541 128.453 10.9934 127.909 10.6719C127.369 10.3471 126.951 9.89134 126.656 9.30469C126.365 8.71473 126.219 8.02367 126.219 7.23153C126.219 6.44934 126.365 5.75994 126.656 5.16335C126.951 4.56676 127.362 4.10109 127.889 3.76633C128.42 3.43158 129.039 3.2642 129.749 3.2642C130.179 3.2642 130.597 3.33546 131.001 3.47798C131.406 3.6205 131.769 3.84422 132.09 4.14915C132.412 4.45407 132.665 4.85014 132.851 5.33736C133.036 5.82126 133.129 6.40956 133.129 7.10227V7.62926H127.059V6.51562H131.673C131.673 6.12453 131.593 5.77817 131.434 5.47656C131.275 5.17164 131.051 4.93134 130.763 4.75568C130.478 4.58002 130.143 4.49219 129.759 4.49219C129.341 4.49219 128.976 4.59493 128.665 4.80043C128.357 5.0026 128.118 5.26776 127.949 5.59588C127.783 5.92069 127.7 6.27367 127.7 6.65483V7.52486C127.7 8.03527 127.79 8.46946 127.969 8.82741C128.151 9.18537 128.405 9.45881 128.729 9.64773C129.054 9.83333 129.434 9.92614 129.868 9.92614C130.15 9.92614 130.406 9.88636 130.638 9.80682C130.871 9.72396 131.071 9.60133 131.24 9.43892C131.409 9.27652 131.538 9.07599 131.628 8.83736L133.035 9.09091C132.922 9.50521 132.72 9.86813 132.428 10.1797C132.14 10.4879 131.777 10.7282 131.339 10.9006C130.905 11.0696 130.41 11.1541 129.853 11.1541ZM135.758 11.0945C135.486 11.0945 135.253 10.9983 135.057 10.8061C134.861 10.6106 134.764 10.3752 134.764 10.1001C134.764 9.82836 134.861 9.59635 135.057 9.40412C135.253 9.20857 135.486 9.1108 135.758 9.1108C136.03 9.1108 136.263 9.20857 136.459 9.40412C136.655 9.59635 136.752 9.82836 136.752 10.1001C136.752 10.2824 136.706 10.4498 136.613 10.6023C136.524 10.7514 136.404 10.8707 136.255 10.9602C136.106 11.0497 135.94 11.0945 135.758 11.0945ZM139.723 11.0945C139.451 11.0945 139.217 10.9983 139.022 10.8061C138.826 10.6106 138.729 10.3752 138.729 10.1001C138.729 9.82836 138.826 9.59635 139.022 9.40412C139.217 9.20857 139.451 9.1108 139.723 9.1108C139.995 9.1108 140.228 9.20857 140.424 9.40412C140.619 9.59635 140.717 9.82836 140.717 10.1001C140.717 10.2824 140.671 10.4498 140.578 10.6023C140.488 10.7514 140.369 10.8707 140.22 10.9602C140.071 11.0497 139.905 11.0945 139.723 11.0945ZM143.688 11.0945C143.416 11.0945 143.182 10.9983 142.987 10.8061C142.791 10.6106 142.693 10.3752 142.693 10.1001C142.693 9.82836 142.791 9.59635 142.987 9.40412C143.182 9.20857 143.416 9.1108 143.688 9.1108C143.959 9.1108 144.193 9.20857 144.389 9.40412C144.584 9.59635 144.682 9.82836 144.682 10.1001C144.682 10.2824 144.636 10.4498 144.543 10.6023C144.453 10.7514 144.334 10.8707 144.185 10.9602C144.036 11.0497 143.87 11.0945 143.688 11.0945Z" fill="#656565"/>
</svg>
